<svg width="193" height="80" viewBox="0 0 193 80" fill="none" xmlns="http://www.w3.org/2000/svg">
<path d="M51.1052 57.6C49.0052 57.6 47.2718 57.2667 45.9052 56.6C44.5385 55.9 43.5218 54.9833 42.8552 53.85C42.2218 52.6833 41.9052 51.4 41.9052 50C41.9052 48.4667 42.2885 47.1167 43.0552 45.95C43.8552 44.7833 45.0385 43.8667 46.6052 43.2C48.2052 42.5333 50.2052 42.2 52.6052 42.2H58.8552C58.8552 40.9667 58.6885 39.95 58.3552 39.15C58.0218 38.3167 57.5052 37.7 56.8052 37.3C56.1052 36.9 55.1718 36.7 54.0052 36.7C52.7385 36.7 51.6552 36.9833 50.7552 37.55C49.8885 38.0833 49.3552 38.9167 49.1552 40.05H42.6052C42.7718 38.25 43.3552 36.7 44.3552 35.4C45.3885 34.0667 46.7385 33.0333 48.4052 32.3C50.1052 31.5667 51.9885 31.2 54.0552 31.2C56.4218 31.2 58.4718 31.6 60.2052 32.4C61.9385 33.2 63.2718 34.35 64.2052 35.85C65.1385 37.35 65.6052 39.2 65.6052 41.4V57H59.9052L59.1552 53.15C58.7885 53.8167 58.3552 54.4167 57.8552 54.95C57.3552 55.4833 56.7718 55.95 56.1052 56.35C55.4385 56.75 54.6885 57.05 53.8552 57.25C53.0218 57.4833 52.1052 57.6 51.1052 57.6ZM52.7052 52.4C53.5718 52.4 54.3385 52.25 55.0052 51.95C55.7052 51.6167 56.3052 51.1833 56.8052 50.65C57.3052 50.0833 57.6885 49.45 57.9552 48.75C58.2552 48.0167 58.4552 47.2333 58.5552 46.4V46.35H53.4052C52.3718 46.35 51.5218 46.4833 50.8552 46.75C50.2218 46.9833 49.7552 47.3333 49.4552 47.8C49.1552 48.2667 49.0052 48.8 49.0052 49.4C49.0052 50.0667 49.1552 50.6167 49.4552 51.05C49.7552 51.4833 50.1885 51.8167 50.7552 52.05C51.3218 52.2833 51.9718 52.4 52.7052 52.4ZM70.9021 57V31.8H76.9021L77.5521 36.45C78.1521 35.35 78.9021 34.4167 79.8021 33.65C80.7354 32.8833 81.7854 32.2833 82.9521 31.85C84.1521 31.4167 85.4687 31.2 86.9021 31.2V38.35H84.6021C83.6021 38.35 82.6687 38.4667 81.8021 38.7C80.9687 38.9333 80.2354 39.3167 79.6021 39.85C78.9687 40.35 78.4854 41.05 78.1521 41.95C77.8187 42.85 77.6521 43.9833 77.6521 45.35V57H70.9021ZM93.561 68L99.661 54.2H98.161L88.061 31.8H95.411L102.611 48.05L109.111 31.8H116.261L100.711 68H93.561ZM129.488 57.6C126.955 57.6 124.705 57.0667 122.738 56C120.805 54.9 119.288 53.3833 118.188 51.45C117.122 49.4833 116.588 47.2167 116.588 44.65C116.588 42.0167 117.122 39.7 118.188 37.7C119.288 35.6667 120.805 34.0833 122.738 32.95C124.672 31.7833 126.922 31.2 129.488 31.2C131.988 31.2 134.172 31.75 136.038 32.85C137.905 33.95 139.355 35.4333 140.388 37.3C141.422 39.1667 141.938 41.2833 141.938 43.65C141.938 43.9833 141.938 44.3667 141.938 44.8C141.938 45.2 141.905 45.6167 141.838 46.05H121.388V41.95H135.138C135.038 40.3167 134.455 39.0333 133.388 38.1C132.355 37.1667 131.055 36.7 129.488 36.7C128.355 36.7 127.305 36.9667 126.338 37.5C125.372 38 124.605 38.7833 124.038 39.85C123.505 40.9167 123.238 42.2667 123.238 43.9V45.35C123.238 46.7167 123.488 47.9167 123.988 48.95C124.522 49.95 125.255 50.7333 126.188 51.3C127.122 51.8333 128.205 52.1 129.438 52.1C130.672 52.1 131.688 51.8333 132.488 51.3C133.322 50.7667 133.938 50.0833 134.338 49.25H141.238C140.772 50.8167 139.988 52.2333 138.888 53.5C137.788 54.7667 136.438 55.7667 134.838 56.5C133.238 57.2333 131.455 57.6 129.488 57.6ZM146.467 57V31.8H152.467L153.117 36.45C153.717 35.35 154.467 34.4167 155.367 33.65C156.3 32.8833 157.35 32.2833 158.517 31.85C159.717 31.4167 161.033 31.2 162.467 31.2V38.35H160.167C159.167 38.35 158.233 38.4667 157.367 38.7C156.533 38.9333 155.8 39.3167 155.167 39.85C154.533 40.35 154.05 41.05 153.717 41.95C153.383 42.85 153.217 43.9833 153.217 45.35V57H146.467ZM174.425 57.6C172.325 57.6 170.592 57.2667 169.225 56.6C167.859 55.9 166.842 54.9833 166.175 53.85C165.542 52.6833 165.225 51.4 165.225 50C165.225 48.4667 165.609 47.1167 166.375 45.95C167.175 44.7833 168.359 43.8667 169.925 43.2C171.525 42.5333 173.525 42.2 175.925 42.2H182.175C182.175 40.9667 182.009 39.95 181.675 39.15C181.342 38.3167 180.825 37.7 180.125 37.3C179.425 36.9 178.492 36.7 177.325 36.7C176.059 36.7 174.975 36.9833 174.075 37.55C173.209 38.0833 172.675 38.9167 172.475 40.05H165.925C166.092 38.25 166.675 36.7 167.675 35.4C168.709 34.0667 170.059 33.0333 171.725 32.3C173.425 31.5667 175.309 31.2 177.375 31.2C179.742 31.2 181.792 31.6 183.525 32.4C185.259 33.2 186.592 34.35 187.525 35.85C188.459 37.35 188.925 39.2 188.925 41.4V57H183.225L182.475 53.15C182.109 53.8167 181.675 54.4167 181.175 54.95C180.675 55.4833 180.092 55.95 179.425 56.35C178.759 56.75 178.009 57.05 177.175 57.25C176.342 57.4833 175.425 57.6 174.425 57.6ZM176.025 52.4C176.892 52.4 177.659 52.25 178.325 51.95C179.025 51.6167 179.625 51.1833 180.125 50.65C180.625 50.0833 181.009 49.45 181.275 48.75C181.575 48.0167 181.775 47.2333 181.875 46.4V46.35H176.725C175.692 46.35 174.842 46.4833 174.175 46.75C173.542 46.9833 173.075 47.3333 172.775 47.8C172.475 48.2667 172.325 48.8 172.325 49.4C172.325 50.0667 172.475 50.6167 172.775 51.05C173.075 51.4833 173.509 51.8167 174.075 52.05C174.642 52.2833 175.292 52.4 176.025 52.4Z" fill="#1A1A1A"/>
<g clip-path="url(#clip0_1207_1959)">
<path d="M12.9138 16.2548L1.38443 29.7209C0.91498 30.2693 0 29.9453 0 29.2307V15.7645C0 15.3423 0.350711 15 0.783333 15H12.3127C12.9773 15 13.34 15.757 12.9138 16.2548Z" fill="#444CE8"/>
<path d="M12.9138 55.2127L1.38443 41.7465C0.91498 41.1982 0 41.5222 0 42.2367V55.7028C0 56.1252 0.350711 56.4673 0.783333 56.4673H12.3127C12.9773 56.4673 13.34 55.7104 12.9138 55.2127Z" fill="#444CE8"/>
<path d="M9.43505 45.4562C9.7476 45.7888 10.2858 45.7862 10.5949 45.4506L37.4694 16.2757C37.9227 15.7836 37.5648 15 36.8869 15H19.3222L0 35.4154L9.43505 45.4562Z" fill="#444CE8"/>
<path d="M37.7932 55.0215C38.2298 55.5173 37.8689 56.2845 37.1992 56.2845H19.6739C19.4501 56.2845 19.2369 56.1912 19.0883 56.0276L10.7979 46.919L20.3008 36.487C20.6159 36.1411 21.1711 36.1457 21.4802 36.4967L37.7932 55.0215Z" fill="#444CE8"/>
</g>
<defs>
<clipPath id="clip0_1207_1959">
<rect width="39.1667" height="41.6667" fill="white" transform="translate(0 15)"/>
</clipPath>
</defs>
</svg>
